<svg width="16" height="16" viewBox="0 0 16 16" fill="none" xmlns="http://www.w3.org/2000/svg">
<g clip-path="url(#clip0_56_619)">
<path d="M7.99991 4.35162V1.9995C7.99991 1.82268 8.07015 1.6531 8.19519 1.52807C8.32022 1.40304 8.4898 1.33279 8.66663 1.33279M7.99991 4.35162C8.57549 3.83682 9.28778 3.49952 10.0508 3.38061C10.8138 3.2617 11.5949 3.36617 12.2999 3.68142C13.0048 3.99666 13.6034 4.50919 14.0235 5.15716C14.4435 5.80512 14.6671 6.56081 14.6671 7.33302C14.6775 9.78795 13.7845 12.161 12.1582 14C11.8597 14.334 11.4578 14.558 11.0168 14.6364C10.5758 14.7147 10.1213 14.6428 9.72605 14.432C9.19484 14.1486 8.60201 14.0004 7.99993 14.0004C7.39784 14.0004 6.80501 14.1486 6.2738 14.432C5.87856 14.6428 5.42404 14.7147 4.98305 14.6364C4.54206 14.558 4.14012 14.334 3.84163 14C2.22075 12.1577 1.32857 9.78684 1.33278 7.33302C1.3328 6.56081 1.55632 5.80512 1.97638 5.15716C2.39643 4.50919 2.99506 3.99666 3.7 3.68142C4.40494 3.36617 5.18605 3.2617 5.94906 3.38061C6.71207 3.49952 7.42433 3.83682 7.99991 4.35162Z" stroke="#B7A8FF" stroke-width="1.6" stroke-linecap="round"/>
</g>
<defs>
<clipPath id="clip0_56_619">
<rect width="16" height="16" fill="white"/>
</clipPath>
</defs>
</svg>
